<?xml version="1.0" encoding="utf-8"?>
<!-- Generator: Adobe Illustrator 27.5.0, SVG Export Plug-In . SVG Version: 6.00 Build 0)  -->
<svg version="1.1" id="レイヤー_1" xmlns="http://www.w3.org/2000/svg" xmlns:xlink="http://www.w3.org/1999/xlink" x="0px"
	 y="0px" viewBox="0 0 224.31 135.99" style="enable-background:new 0 0 224.31 135.99;" xml:space="preserve">
<style type="text/css">
	.st0{fill:#FFF100;}
	.st1{fill:#ED6C00;}
	.st2{fill:#FCC800;}
</style>
<g>
	<g>
		<path d="M93.4,5.05c-9.49-1.08-22.31,4.7-39.26,17.75C35.04,37.52,6.82,67.69,5.78,83.71c-0.92,13.88,12.54,17.72,17.57,19.18
			l0.76,0.2c34.39,10.05,49.95-1.77,56.94-13.47c15.71-26.2,28.19-63.55,20.96-78.21C100.21,7.71,97.23,5.52,93.4,5.05z"/>
		<path class="st0" d="M75.11,86.07c-5.26,8.81-14.01,13.47-25.98,13.87c-9.96,0.33-19.52-2.45-23.08-3.49l-0.78-0.22
			c-7.89-2.25-13.03-5.18-12.58-12.07c0.75-12.05,25.63-40.41,45.68-55.86c18.95-14.62,29.05-16.98,34.21-16.36
			c0.98,0.13,2.25,0.51,3.23,2.53C100.54,24.09,93.2,55.86,75.11,86.07z"/>
		<path d="M54.86,62.19c3.17,0,5.77-2.58,5.77-5.77c0-3.18-2.6-5.78-5.77-5.78c-3.21,0-5.78,2.59-5.78,5.78
			C49.07,59.62,51.65,62.19,54.86,62.19z"/>
		<path d="M145.02,37.63l-0.37,0.5c-4.7,6.2-19.02,25.13-19.45,35.28c-0.2,4.77,4.69,12.5,13.75,21.79c3.98,4.1,6.62,6.8,4.81,9.59
			c-1.84,2.81-5.58,1.41-11.29-0.71c-13.71-5.08-36.75-15.36-36.89-27.21c-0.2-16.87,35.92-48.04,43.04-53.47
			c8.8-6.73,14.42-8.76,17.21-6.24c3.56,3.23-2.25,10.15-7.39,16.26C147.16,34.95,145.96,36.39,145.02,37.63z"/>
		<path class="st1" d="M142.74,32.65c-11.85,15.31-23.3,30.34-23.3,40.27c0,6.43,0.94,9.04,10.02,19.72
			c3.56,4.17,6.96,6.12,6.57,6.82c-0.39,0.74-3.99-0.89-6.22-1.85c-18.18-8-28.68-15.25-28.74-21.3
			c-0.15-12.46,28.74-39.76,40.46-48.73c3.37-2.56,7.72-6.1,8.49-5.2C150.99,23.46,147.66,26.31,142.74,32.65z"/>
		<path d="M163.06,31.15c3.75-3.76,9.31-6.42,12.24-3.97c1.16,0.99,2.17,5.1-2.25,11.6c-2.6,3.79-13.05,23.17-12,29.77
			c0.08,0.42,1.04,4.59,13.13,13.97c0.9,0.68,8.65,6.9,7.56,10.56c-1.12,3.64-8.49,1.76-12.86,0.61
			C145.32,87.65,135.7,82,134.63,73.58C133.19,62.47,154.04,40.19,163.06,31.15z"/>
		<path class="st2" d="M140.33,72.85c1.08,8.47,26.63,14.76,29.27,15.43c2.68,0.68,4.01,0.51,1.62-1.35
			c-2.39-1.83-14.77-10.75-15.85-17.43c-1.45-9.06,11.07-30.59,13.32-33.82c2.27-3.18-0.38-2.26-1.86-0.78
			C164.04,37.71,139.15,63.51,140.33,72.85z"/>
		<path d="M201.44,29.84c-8.37,0.78-33.4,33.03-28.76,39.29c4.69,6.25,40.83,2.6,44.99-4.67C221.26,58.22,212.75,28.79,201.44,29.84
			z"/>
		<g>
			<path class="st0" d="M201.68,36.62c-4.77,0.28-23.56,25.36-21.83,28.35c1.88,2.95,29.32-0.91,31.43-4.91
				C212.98,56.92,206.49,36.39,201.68,36.62z"/>
		</g>
		<polygon points="77.73,129.14 72.88,120.35 77.56,111.91 70.98,111.91 67.03,119.1 67.03,111.91 61.51,111.91 61.51,129.14 
			67.03,129.14 67.03,121.17 70.92,129.14 		"/>
		<path d="M90.17,129.14h6.04c0,0-4.42-14.21-4.77-15.17c-0.37-1-1.11-2.06-3.66-2.06c-2.6,0-3.27,0.73-3.88,2.32
			c-0.64,1.59-5.26,14.91-5.26,14.91h6.04l0.65-2.56h4.28L90.17,129.14z M86.38,122.48l1.04-4.08h0.35l0.92,4.08H86.38z"/>
		<path d="M105.7,111.91h-5.51c0,0,0,8.45,0,9.86c0,1.43-0.61,1.94-2.91,1.94v5.43c0,0,0.99,0,2.37,0c1.39,0,6.04,0,6.04-5.78
			C105.7,117.58,105.7,111.91,105.7,111.91z"/>
		<rect x="107.58" y="111.91" width="5.48" height="17.23"/>
		<path d="M124.43,129.14c1.58,0,2.32-0.81,2.75-2.56c0.47-1.79,1.36-5.44,1.36-5.44h0.27v8.01h5.22c0,0,0-12.16,0-14.4
			c0-2.2-2.31-3.18-3.83-3.09c-1.49,0.08-3.3,0.53-3.73,1.86c-0.45,1.33-2.05,6.72-2.05,6.72s-1.59-5.4-2.03-6.72
			c-0.45-1.33-2.25-1.77-3.74-1.86c-1.52-0.09-3.81,0.89-3.81,3.09c0,2.24,0,14.4,0,14.4h5.22v-8.01h0.25c0,0,0.9,3.66,1.35,5.44
			C122.12,128.33,122.86,129.14,124.43,129.14z"/>
		<path d="M141.4,120.56c0-1.82,1.49-3.31,3.31-3.31c1.82,0,3.3,1.5,3.3,3.31c0,1.83-1.48,3.32-3.3,3.32
			C142.89,123.87,141.4,122.39,141.4,120.56z M144.71,129.54c4.95,0,8.98-4.03,8.98-8.98c0-4.97-4.03-8.98-8.98-8.98
			c-4.97,0-9,4.01-9,8.98C135.7,125.51,139.74,129.54,144.71,129.54z"/>
		<path d="M174.44,120.56c0-1.82,1.47-3.31,3.32-3.31c1.82,0,3.32,1.5,3.32,3.31c0,1.83-1.5,3.32-3.32,3.32
			C175.91,123.87,174.44,122.39,174.44,120.56z M177.75,129.54c4.95,0,9-4.03,9-8.98c0-4.97-4.05-8.98-9-8.98c-4.97,0-9,4.01-9,8.98
			C168.75,125.51,172.78,129.54,177.75,129.54z"/>
		<polygon points="168.1,111.91 154.59,111.91 154.59,117.41 158.58,117.41 158.58,129.3 164.24,129.3 164.24,117.41 168.1,117.41 
					"/>
	</g>
</g>
</svg>
